/* XPM */
static char *_de21fa4372a4198874b2d08a8c39b658Nef0hhefslBGRk0[] = {
/* columns rows colors chars-per-pixel */
"32 32 15 1 ",
"  c #69D34F",
". c #141412",
"X c #362414",
"o c #620000",
"O c #744C2B",
"+ c #000059",
"@ c #1D4E6D",
"# c #9B1F28",
"$ c #DE302E",
"% c #AA7040",
"& c #F07868",
"* c #F0A070",
"= c #D7CF6F",
"- c #2972A3",
"; c #F8F7F8",
/* pixels */
"                                ",
"             oooooo             ",
"            o#==###o            ",
"            o#;;$$$#o           ",
"           ooooooo#$#oo         ",
"          o#$$$$##o$$##o        ",
"          ooooooooo#$$#o        ",
"            O;;&;;&ooooo        ",
"            O;-*-;&&XXO         ",
"            O;.*.;*&XX&O        ",
"           O*******XXX&O        ",
"           .&**&&.**X&O         ",
"          ...&&....*&&XX        ",
"            .....**&&XX         ",
"             O&&&&&&O           ",
"             +oOOOoooo          ",
"            +oO;;;O$$#o         ",
"            +O;;;;=O$$o         ",
"           +oO;;;==O$#o         ",
"           +++O===O###o         ",
"           +=-=OOOoooo+         ",
"           +=-==-@@@@@+         ",
"            +-----@@@+          ",
"            +@+---@@@+          ",
"             +@+-@@@+           ",
"             ++++++++           ",
"             XOX%%OOX           ",
"            XOX%%OOOX           ",
"            XXXXXXXXX           ",
"                                ",
"                                ",
"                                "
};
