/* XPM */
static char *_8c2116f3c6a4412b7121cecdf4cc9ackw3ygE2g51xha3fM[] = {
/* columns rows colors chars-per-pixel */
"32 32 12 1 ",
"  c #69D34F",
". c #362414",
"X c #620000",
"o c #744C2B",
"O c #000059",
"+ c #1D4E6D",
"@ c #9B1F28",
"# c #DE302E",
"$ c #AA7040",
"% c #F07868",
"& c #F0A070",
"* c #2972A3",
/* pixels */
"                                ",
"                                ",
"             XXXXXX             ",
"            X@@##@@X            ",
"           X@@####@@X           ",
"          X@@####@@@@X          ",
"          X@######@@@X          ",
"          X@#######@@X          ",
"          X@#######@@X          ",
"         oX@@#####@@@Xo         ",
"         o&X@@###@@@X&o         ",
"         o%XX@@@@@@XX%o         ",
"          o..XX@@XX..o          ",
"          o....XX....o          ",
"           ..........           ",
"            ........            ",
"          XXOOOXXOOOXX          ",
"         X#XO*O@#O+OX#X         ",
"        X#@O+*+OO*++O@#X        ",
"        X@O+*******++O@X        ",
"        X@O+*******++O@X        ",
"         XO+******+++OX         ",
"          O**++++++++O          ",
"          OO+*+OO+*+OO          ",
"           O**+O+**+O           ",
"           ++++O+**++           ",
"           OOOOOOOOOO           ",
"           .$oo.oooo.           ",
"          .$ooo..$$oo.          ",
"          ............          ",
"                                ",
"                                "
};
