/* XPM */
static char *_2a8ccb2f1f7488ac1a0862741a3ad69U67r4YHrt0o4hMTY[] = {
/* columns rows colors chars-per-pixel */
"32 32 15 1 ",
"  c #69D34F",
". c #141412",
"X c #362414",
"o c #620000",
"O c #744C2B",
"+ c #000059",
"@ c #1D4E6D",
"# c #9B1F28",
"$ c #DE302E",
"% c #AA7040",
"& c #F07868",
"* c #F0A070",
"= c #D7CF6F",
"- c #2972A3",
"; c #F8F7F8",
/* pixels */
"                                ",
"              oooooo            ",
"             o###==#o           ",
"            o#$$$;;#o           ",
"          oo#$#ooooooo          ",
"         o##$$o##$$$$#o         ",
"         o#$$#ooooooooo         ",
"         ooooo&;;&;;O           ",
"          OXX&&;-*-;O           ",
"         O&XX&*;.*.;O           ",
"         O&XXX*******O          ",
"          O&X**.&&**&.          ",
"         XX&&*....&&...         ",
"          XX&&**.....           ",
"            O&&&&&&O            ",
"           ooooOOOo+            ",
"          o#$$O;;;Oo+           ",
"          o$$O=;;;;O+           ",
"          o#$O==;;;Oo+          ",
"          o###O===O+++          ",
"          +ooooOOO=-=+          ",
"          +@@@@@-==-=+          ",
"           +@@@-----+           ",
"           +@@@---+@+           ",
"            +@@@-+@+            ",
"            ++++++++            ",
"            XOO%%XOX            ",
"            XOOO%%XOX           ",
"            XXXXXXXXX           ",
"                                ",
"                                ",
"                                "
};
