/* XPM */
static char *c910300e61e64b9596b61c3c00708b71C4Rl1ZAu03VT2KdI[] = {
/* columns rows colors chars-per-pixel */
"34 32 213 2 ",
"   c #040202",
".  c #0C0401",
"X  c #0D0905",
"o  c #0C060A",
"O  c #0B0A0D",
"+  c #130201",
"@  c #1C0201",
"#  c #1C0B03",
"$  c #160607",
"%  c #19100A",
"&  c #0F0F11",
"*  c #260300",
"=  c #2C0401",
"-  c #240B01",
";  c #2C0B03",
":  c #220B0A",
">  c #2E0F09",
",  c #340501",
"<  c #390501",
"1  c #330C02",
"2  c #3B0C02",
"3  c #360E08",
"4  c #2C1103",
"5  c #20120C",
"6  c #2D120B",
"7  c #261206",
"8  c #321103",
"9  c #3A170A",
"0  c #3A1C13",
"q  c #420500",
"w  c #4E1C0C",
"e  c #551E0C",
"r  c #5A1C07",
"t  c #5B1F1D",
"y  c #601D18",
"u  c #4C220C",
"i  c #492508",
"p  c #5C230D",
"a  c #56250C",
"s  c #43251C",
"d  c #492318",
"f  c #572611",
"g  c #5B2612",
"h  c #592914",
"j  c #58271A",
"k  c #4E311D",
"l  c #5C341A",
"z  c #51311F",
"x  c #63240D",
"c  c #63290E",
"v  c #6C2F0A",
"b  c #632512",
"n  c #6A2714",
"m  c #642B13",
"M  c #6C2E16",
"N  c #612B1B",
"B  c #6B2A1A",
"V  c #62271E",
"C  c #732C1B",
"Z  c #742D14",
"A  c #653314",
"S  c #6B3215",
"D  c #63331A",
"F  c #6B321A",
"G  c #623A1E",
"H  c #5B2A21",
"J  c #543420",
"K  c #5D3721",
"L  c #673B24",
"P  c #733220",
"I  c #654232",
"U  c #7D4435",
"Y  c #7A5F56",
"T  c #76645B",
"R  c #605E60",
"E  c #7B6765",
"W  c #A13F1B",
"Q  c #923F28",
"!  c #CF3F17",
"~  c #D43E17",
"^  c #8B4416",
"/  c #8F441B",
"(  c #88481C",
")  c #964416",
"_  c #94451C",
"`  c #9B421B",
"'  c #BD4D1B",
"]  c #B84B18",
"[  c #BC531D",
"{  c #B1501F",
"}  c #AB4A1E",
"|  c #874221",
" . c #8D4622",
".. c #8C452A",
"X. c #8D492A",
"o. c #944423",
"O. c #934923",
"+. c #9D4B25",
"@. c #93442B",
"#. c #99452D",
"$. c #92492C",
"%. c #9D4E2B",
"&. c #9B522B",
"*. c #8C4C32",
"=. c #864633",
"-. c #944C33",
";. c #9C4F33",
":. c #984936",
">. c #8E5B3E",
",. c #945033",
"<. c #9C5335",
"1. c #9D543C",
"2. c #AE4D2B",
"3. c #A04A29",
"4. c #BC4D22",
"5. c #B64E28",
"6. c #BC4D2B",
"7. c #B44A23",
"8. c #A45026",
"9. c #AC552B",
"0. c #B45425",
"q. c #BD5224",
"w. c #B6552D",
"e. c #BC532B",
"r. c #BA5927",
"t. c #A74E36",
"y. c #B14D31",
"u. c #BC4D32",
"i. c #A25A3E",
"p. c #A95637",
"a. c #B35432",
"s. c #BD5333",
"d. c #BD513B",
"f. c #B65937",
"g. c #C5450B",
"h. c #C3490F",
"j. c #CC4B0E",
"k. c #CB460D",
"l. c #D5450D",
"z. c #D34B0C",
"x. c #DA4709",
"c. c #C54513",
"v. c #CD4515",
"b. c #C64C13",
"n. c #CC4B14",
"m. c #C2461B",
"M. c #CC461C",
"N. c #C44C1C",
"B. c #CC4C1B",
"V. c #D44614",
"C. c #DB4414",
"Z. c #D24A14",
"A. c #DB4B14",
"S. c #D5461B",
"D. c #DB451C",
"F. c #D24A1B",
"G. c #D94C19",
"H. c #C4511D",
"J. c #C9521B",
"K. c #CC5013",
"L. c #D25418",
"P. c #E04916",
"I. c #C44D24",
"U. c #CB4C23",
"Y. c #C44D2A",
"T. c #CC4B29",
"R. c #C84626",
"E. c #DA4622",
"W. c #D14921",
"Q. c #D44727",
"!. c #C15226",
"~. c #C45224",
"^. c #CB5124",
"/. c #C25129",
"(. c #C2532B",
"). c #D05025",
"_. c #C24D32",
"`. c #C35231",
"'. c #C35930",
"]. c #C45438",
"[. c #AE5744",
"{. c #846144",
"}. c #9E6F50",
"|. c #8D7454",
" X c #8E7069",
".X c #94736E",
"XX c #977C73",
"oX c #A07867",
"OX c #C35642",
"+X c #DB7E5C",
"@X c #E57E5C",
"#X c #EA7D5B",
"$X c #EC7B61",
"%X c #BF8B5D",
"&X c #B88365",
"*X c #B98675",
"=X c #CD825B",
"-X c #DC8456",
";X c #DD835A",
":X c #D98758",
">X c #E1834F",
",X c #E38356",
"<X c #D58966",
"1X c #D2946D",
"2X c #DE9065",
"3X c #DA8D74",
"4X c #DA9073",
"5X c #D3927D",
"6X c #DA9376",
"7X c #E68E73",
"8X c #E28C66",
"9X c #D59482",
"0X c #E3B18F",
/* pixels */
". + + # + . . . X   . . . + + . .   . . + + @ + . o O . . + $ +   R ",
"z L D G G l l K 0 # k G D S F F S D D D D F D D l 6 - k L h D S f XX",
"&.w.q.(.Y.e.e.f.B = ,.e.e.(.^.Y.!.q.q.!.Y./.!.e.a.e 2 ;.a.q.!.^.6.5X",
"9.b.l.F.W.F.v.(.Z 1 3.B.v.S.C.C.C.V.V.V.V.V.j.L.e.r q t.I.M.b.C.M.3X",
"9.K.j.B.R.).B.w.M : ;.H.B.F.S.S.S.Z.Z.B.n.Z.K.b.w.w 1 :.e.N.K.A.c.5X",
"0.K.x.Z.b.B.j.r.v # %.N.b.F.C.C.V.V.Z.Z.n.j.z.K.5.e 1 ;.!.b.j.x.g.6X",
"} j.x.C.Z.L.g.[ v 7 &.H.M.F.F.S.v.B.B.b.Z.n.n.b.e.a 2 ;.q.J.h.A.b.3X",
"p.e.U.T.T.^.H.f.A # ;.e.`.`._.Y.`.e.e.e./.I.~.(.a.e 2 1.w.'.~.^.4.5X",
"s f x x b x x h 9 # d p b b y g f f f f b b x x j 6 : d h m p x r  X",
"X # - ; , = < , 8 ; , < < , , ; ; - - ; = , , , ; * ; ; < , < < = T ",
"+ d U -.#.Q #...@.@.o.#.#.....*.L , w *...@.#.Q O.-.../ o.o.Q o./ *X",
". j y.' [ 4.R.I.I.I.N.~./.I.U.(.*.; f 9.I.I.T.I.4.!.I.N.N.U.U.q.{ 4X",
"o t Y.z.z.n.S.F.Z.Z.z.Z.I.C.x.B.-.= f q.Z.V.V.V.Z.Z.n.A.A.C.Z.b.] 2X",
". y _.V.z.V.C.Z.j.j.z.j.I.V.x.B.$., c !.j.G.A.V.V.V.l.A.l.z.V.b.c.8X",
"  t [.m.B.B.F.F.K.b.K.B.T.F.C.).:., m q.c.F.S.F.D.D.S.S.S.F.F.W.M.7X",
"$ j d.5.0.r.I.I.H.H.J.~.e.~.N.(.*.< a w.~.^.B.B.T.T.T.T.U.H.[ ~.7.7X",
"@ w ..( ( / ` W ` ` ) /  ._ ) O.L - i ( ^ ) ) ) ` o.o.o._ / ^ / / &X",
"$ ; ; - 4 1 2 , < < 8 1 ; 1 , 1 5 & % 7 1 1 1 , < 7 : : 1 4 7 8 = E ",
"j m c A m m h H 0 $ j m m n n m j H j B n n m m V 6 : t j S c M e .X",
"8.q.[ e.q.'.a.[.G # -.6.6.Y.I.Y.e.u.6.6.Y.4.4.`.f.e 2 1.y.e.7.Y.7.5X",
"' j.h.B.k.C.' f.F # +.H.B.b.B.b.B.F.M.B.K.B.b.m.7.a 2 ;.6.H.b.S.b.1X",
"I.Z.j.F.C.P.v.].B - 8.B.n.n.Z.Z.z.V.Z.V.n.j.Z.B.w.i ; <.I.n.z.P.h.1X",
"I.F.j.B.V.C.M.d.C ; +.B.n.Z.n.v.l.x.A.Z.Z.n.V.U.a.w 8 <.Y.v.A.P.c.1X",
"u.E.l.A.l.P.W.OXB ; %.N.b.B.Q.S.l.x.x.F.B.B.M.T.t.a < <.5.W.V.D.B.4X",
"t.].T.[ [ ~.s.[.N ; ,.a.r.e.].s.q.H.q.s.s.e.e.f.1.u 1 >.p.r./.'.2.5X",
"H P C P A S B L 9 - z F S B C C S A S B P S S F L 8 - J l S Z F c .X",
"o : > 6 > 7 6 1 1 8 8 3 8 2 2 3 5 X 5 6 3 3 2 8 4 8 6 > 8 8 8 1 = Y ",
"o s P :.@.$.$.@.+.O.o.o.X.o._ %.I # s =.#.$.O.O.$...$.$.O.O._ $.| *X",
"+ f t.T.W.T.I.U.T.N.B.U.e.B.B.~.*.; j y.I.T.B.N.T.I.I.T.U.W.N.~.] 3X",
"X h y.E.~ D.n.F.S.W.F.M.N.b.Z.^.$., B 6.M.M.F.F.B.U.B.U.E.S.E.U.' 4X",
"  i &.b.l.k.c.c.m.! V.c.] g.l.N. .= r 5.B.c.v.v.m.N.m.M.! ~ S.m.] 1X",
"T |.=X:X>X>X-X;X$X$X#X,X:X,X,X8XoX{.}.<X;X-X@X@X-X:X:X;X#X#X$X;X=X0X"
};
