/* XPM */
static char *result[] = {
/* columns rows colors chars-per-pixel */
"32 32 218 2 ",
"   c #020203",
".  c #0B0100",
"X  c #010903",
"o  c #00030B",
"O  c #0B000B",
"+  c #00080B",
"@  c #120201",
"#  c #1E0800",
"$  c #12030C",
"%  c #1A0F09",
"&  c #030A12",
"*  c #080812",
"=  c #100D19",
"-  c #200600",
";  c #2D0500",
":  c #2D0B04",
">  c #200C05",
",  c #361203",
"<  c #391909",
"1  c #341C10",
"2  c #4E1D0E",
"3  c #542B0C",
"4  c #592406",
"5  c #5B2815",
"6  c #5D3117",
"7  c #6A2603",
"8  c #622C06",
"9  c #6C270E",
"0  c #652B0B",
"q  c #6B290C",
"w  c #732C02",
"e  c #7A2E07",
"r  c #762F0E",
"t  c #7B2C0A",
"y  c #7C2200",
"u  c #6C320B",
"i  c #623306",
"p  c #7C3103",
"a  c #75320E",
"s  c #7C340B",
"d  c #7C3C0C",
"f  c #783505",
"g  c #642C13",
"h  c #6B2C13",
"j  c #662D19",
"k  c #6C2D1B",
"l  c #6C2513",
"z  c #742C10",
"x  c #7B2F14",
"c  c #742D1B",
"v  c #7F2E1B",
"b  c #6D3214",
"n  c #64321C",
"m  c #6B321D",
"M  c #6D3818",
"N  c #743412",
"B  c #7C3413",
"V  c #753A14",
"C  c #7C3913",
"Z  c #74341B",
"A  c #7C331B",
"S  c #7C3C1A",
"D  c #743D1F",
"F  c #5B3626",
"G  c #6D3D2C",
"H  c #6A3523",
"J  c #723523",
"K  c #7F3721",
"L  c #794326",
"P  c #8A2D09",
"I  c #862A07",
"U  c #843103",
"Y  c #823905",
"T  c #8D3D04",
"R  c #82340C",
"E  c #8A340C",
"W  c #853A0C",
"Q  c #8A3A0E",
"!  c #883606",
"~  c #953B03",
"^  c #9F3E04",
"/  c #943D0D",
"(  c #862F12",
")  c #892F15",
"_  c #843314",
"`  c #8C3414",
"'  c #843B13",
"]  c #8C3B13",
"[  c #843519",
"{  c #8D351A",
"}  c #833A1B",
"|  c #893B1B",
" . c #923B12",
".. c #9B3C12",
"X. c #943B1C",
"o. c #9B3C1A",
"O. c #963417",
"+. c #A33B0D",
"@. c #AB3D0D",
"#. c #A63E07",
"$. c #B23C0B",
"%. c #A33C12",
"&. c #A13D19",
"*. c #823522",
"=. c #8E3B21",
"-. c #873725",
";. c #953D21",
":. c #903725",
">. c #A23F22",
",. c #89400D",
"<. c #914305",
"1. c #984000",
"2. c #96430E",
"3. c #9C420D",
"4. c #854414",
"5. c #8D4314",
"6. c #8B431B",
"7. c #89451E",
"8. c #954413",
"9. c #9A4114",
"0. c #944B16",
"q. c #984817",
"w. c #93441A",
"e. c #9C441C",
"r. c #934E1C",
"t. c #9B4C1B",
"y. c #A34203",
"u. c #AB4302",
"i. c #A4440E",
"p. c #AC450C",
"a. c #AC4A0D",
"s. c #B34505",
"d. c #B5450B",
"f. c #B24A0C",
"g. c #B34D02",
"h. c #AB4514",
"j. c #AB4D16",
"k. c #A5431C",
"l. c #AB441E",
"z. c #A34D1E",
"x. c #AB4C19",
"c. c #A34614",
"v. c #B14414",
"b. c #B64A15",
"n. c #BD4B14",
"m. c #B14B1B",
"M. c #BA4C1B",
"N. c #B94711",
"B. c #AE541F",
"V. c #BC501F",
"C. c #8B4223",
"Z. c #8A4128",
"A. c #8A4B21",
"S. c #964124",
"D. c #9A4423",
"F. c #974E25",
"G. c #9A4D25",
"H. c #96482C",
"J. c #9D532E",
"K. c #994D36",
"L. c #9B5237",
"P. c #A34524",
"I. c #A74F29",
"U. c #A84C22",
"Y. c #B54B23",
"T. c #BB4C24",
"R. c #B64526",
"E. c #A5532D",
"W. c #AF5521",
"Q. c #B45022",
"!. c #BB5424",
"~. c #B5572A",
"^. c #AC4A31",
"/. c #B95838",
"(. c #B0603F",
"). c #CF4E00",
"_. c #CC4F0C",
"`. c #CB550F",
"'. c #C54B14",
"]. c #C94A1A",
"[. c #C95314",
"{. c #C3531D",
"}. c #CA541D",
"|. c #C65215",
" X c #CA5323",
".X c #D05F35",
"XX c #CF6124",
"oX c #CC673D",
"OX c #884C48",
"+X c #9A5744",
"@X c #945E54",
"#X c #896148",
"$X c #976A56",
"%X c #AC6C47",
"&X c #BD6749",
"*X c #A4685A",
"=X c #B46858",
"-X c #A77455",
";X c #B07057",
":X c #A1756A",
">X c #C05E43",
",X c #CC6A4A",
"<X c #D26B49",
"1X c #CA704D",
"2X c #C67847",
"3X c #DC7947",
"4X c #C36A55",
"5X c #CE7453",
"6X c #C8795A",
"7X c #D57252",
"8X c #D0745F",
"9X c #E17944",
"0X c #C57464",
"qX c #CF8256",
"wX c #D88255",
"eX c #E58458",
"rX c #D6876D",
"tX c #69D34F",
/* pixels */
"tXtXtXtXtXtXtXtXtXtXtXtXtXtXtXtXtXtXtXtXtXtXtXtXtXtXtXtXtXtXtXtX",
"tXtXtXtXtXtXtXtXtXtXtXtXtXtXtXtXtXtXtXtXtXtXtXtXtXtXtXtXtXtXtXtX",
"tXtXtXtXtXtXtX.XtXtXtXtX).!.tXtXtXtX|.[.tXtXtXtX}.tXtXtXtXtXtXtX",
"tXtXtXtXtXtXtX/.tXtXtXtXs.^.tXtXtXtXf.g.tXtXtXtXl.tXtXtXtXtXtXtX",
"tXtXtXtXtXtXtXL.8X$X0X/.h A.3X=X1X>XN 4.<X=X:X&X-.tXtXtXtXtXtXtX",
"tXtXtXtXtXtXtX_ { w Q _ z { P 3 s B a | I ( d p P tXtXtXtXtXtXtX",
"tXtXtXtXtXtXtXk.W W.e.| x.b.E E.j.| z.h.A P.a.A j.tXtXtXtXtXtXtX",
"tXtXtXtXtXtXtX4.8.5 @ @ < -.X.w ;.o.w - + # | o.C tXtXtXtXtXtXtX",
"tXtXtXtXtXtXtX| { 4 .   % { ` w ! | 7 * .   C R u tXtXtXtXtXtXtX",
"tXtXtXtXtXtXtXG.0...$ & , j.] Y.R.N j.;     U.d ].tXtXtXtXtXtXtX",
"tXtXtXtXtXtXtX_ *.4     % X.` i Y Z.N     . b :.u tXtXtXtXtXtXtX",
"tXtXtXtXtXtXtXO...0     : o./ w %.] u     @ C.T d tXtXtXtXtXtXtX",
"tXtXtXtXtXtXtXL.7.] @ * 1 A.S v.z.A J.; o . w.` ^.tXtXtXtXtXtXtX",
"tXtXtXtXtXtXtX;XOXu G *X$X%X+Xx C ;X-X#X@Xl a *X=XtXtXtXtXtXtXtX",
"tX6XtXtXtX4X XoX&Xy J.9X{.`.2Xc =.9X]. XqXp w.wX`.[.tXtXtXtX!.tX",
"tX0XtXtXtX4X].XX,Xf.~.1XT.}.1Xm.W.3X{.'.7Xb.b.6X_.'.tXtXtXtX!.tX",
"tXL.tXtXtXOXg F.rX1X3X%Xm | eX5XwX%Xs E rX6X7X1X' N tXtXtXtX( tX",
"tXR.#.a x.u.Z $.i.P p.3.b F.#.r k.P.( 8.i.E 8.y.R e.$.O.:.@.&.tX",
"tX=.5.a.| 4.$.C.*.b.D.A v.h.A U.P.r i.m.J t.s.G h.e.J f.a.H l.tX",
"tXV A c Z _ u C Z B V B U U h 5 3 m r Q r t | g W N z s V N A tX",
"tXt.p.K x.d.L ^ a.e ..x.s Z.,   . 1 F F.s. .K.s.] Z.d.D.C.a.S.tX",
"tX[ Q +.R Y #.7. .@.w.[ / 2 o . O   3 w.c 0.~ b @.e.m 3.2.n &.tX",
"tX[ s [ -.C e ' h N C r D . + X o * : S k C Y j Y W 9 _ C 0 / tX",
"tXl.B.C h.M.V T.m.} j.N.H . . o O   . ^.R.5.r.].C.D.n.D.w.b.k.tX",
"tXZ ` <.C B 3.A B +.E b W .         @ 6.7 5.2.8 3./ 9  .w.9 / tX",
"tXZ { Q A x Q _ M R } b r $         . B c [ ] k ' ] l ' { h 5.tX",
"tXI.M.N !.V.k {.N.} E.M.s   .       = E.b.&.D.n.w.r.n.>.S.b.q.tX",
"tXe } W s Z 2.s Z ~ E Z V @ O o     @ ' g | ~ 6  . .j T ~ n ,.tX",
"tXs } ,.R V 9.C Z ~ E J V @ O       @ ' g | ~ 6  . .j T / n 5.tX",
"tXI.M.N Y.M.h {.M.} I.b.s   . X     = E.N.o.S.n.w.r.n.P.;.b.8.tX",
"tXc ) E x B ` B M R S b r O   O     @ x A [ { k ' ` l C { h 5.tX",
"tXZ ] <.} A 3.' C +.] V ] @ X       @ 6.q 5.q.0 ..8.z ..w.h 3.tX"
};
