/* XPM */
static char *ec6a9fb862fc461cfe2088ed742de2502qmIXjGFlNYxI806[] = {
/* columns rows colors chars-per-pixel */
"33 32 24 1 ",
"  c #38835A",
". c #39855A",
"X c #3B885A",
"o c #3C895A",
"O c #3E8D59",
"+ c #499E57",
"@ c #429359",
"# c #4CA357",
"$ c #4EA656",
"% c #53AE55",
"& c #56B355",
"* c #5BBB53",
"= c #5CBD53",
"- c #5FC252",
"; c #69D34F",
": c #69D44F",
"> c #61C651",
", c #63C851",
"< c #65CB50",
"1 c #64CB51",
"2 c #65CC50",
"3 c #66CE50",
"4 c #67CF50",
"5 c #67D050",
/* pixels */
";;;;;;;;;;;;;;;;;;;;;;;;;;;;;;;;;",
";;;;;;;;;;;;;;;;;;;;;;;;;;;;;;;;;",
";;;;;;;;;;;;;;;;;;;;;;;;;;;;;;;;;",
";;;;;;;;;;;;;;;;;;;;;;;;;;;;;;;;;",
";;;;;;;;;;;;;;;;;;;;;;;;;;;;;;;;;",
";;;;;;;;;;;;;;;;;;;;;;;;;;;;;;;;;",
";;;;;;;;;;;;;;;;;;;;;;;;;;;;;;;;;",
";;;;;;;;;;;;;;;;;;;;;;;;;;;;;;;;;",
";;;;;;;;;;;;;;;;;;;;;;;;;;;;;;;;;",
";;;;;;;;;;;;;;;;;;;;;;;;;;;;;;;;;",
";;;;;;;;;2====-;;;;;;;;;;;;;;;;;;",
";;;;;;;;;*....@5;;;;;;;;;;;;;;;;;",
";;;;;;;;$...... 1;;;;;;;;;;;;;;;;",
";;;;;;;;1&. ..  1;;;;;;;;;;;;;;;;",
";;;;;;;;;>&&&+O&4;;;;;;;;;;;;;;;;",
";;;;;;;;;;;;;*#;;;;;;;;;;;;;;;;;;",
";;;;;;;;;;;;;;;;;;;;;;;;;;;;;;;;;",
";;;;;;;;;;;;;;;;;;;;@Oo@;;;:;;;;;",
";;;;;;;;;;;;;;;;;;1$...X$$=;;;;;;",
";;;;;;;;;;;;;;;;;>% ......#=;;;;;",
";;;;;;;;;;;;;;;;;%o ......o+:;;;;",
";;;;;;;;;;;;;;;;;;>       &;;;;;;",
";;;;;;;;;;;;;;;;;;;>1,,,1>3;;;;;;",
";;;;;;;;;;;;;;;;;;;;;;;;;;;;;;;;;",
";;;;;;;;;;;;;;;;;;;;;;;;;;;;;;;;;",
";;;;;;;;;;;;;;;;;;;;;;;;;;;;;;;;;",
";;;;;;;;;;;;;;;;;;;;;;;;;;;;;;;;;",
";;;;;;;;;;;;;;;;;;;;;;;;;;;;;;;;;",
";;;;;;;;;;;;;;;;;;;;;;;;;;;;;;;;;",
";;;;;;;;;;;;;;;;;;;;;;;;;;;;;;;;;",
";;;;;;;;;;;;;;;;;;;;;;;;;;;;;;;;;",
";;;;;;;;;;;;;;;;;;;;;;;;;;;;;;;;;"
};
