/* XPM */
static char *_ab18e5661704f81ef64623d18877729tInLax1nq4leMjs6[] = {
/* columns rows colors chars-per-pixel */
"32 32 226 2 ",
"   c #020203",
".  c #0B0100",
"X  c #010903",
"o  c #00030B",
"O  c #69D34F",
"+  c #00080B",
"@  c #120201",
"#  c #160709",
"$  c #080A14",
"%  c #290802",
"&  c #391302",
"*  c #341D10",
"=  c #4E1D0E",
"-  c #562709",
";  c #5D3117",
":  c #5A2915",
">  c #6B290C",
",  c #672908",
"<  c #732C02",
"1  c #7A2E07",
"2  c #762F0E",
"3  c #7B2807",
"4  c #6C320B",
"5  c #623306",
"6  c #75320E",
"7  c #7C340B",
"8  c #7D3B0E",
"9  c #7A3304",
"0  c #642C13",
"q  c #6B2C13",
"w  c #6C2D1B",
"e  c #682A17",
"r  c #742C10",
"t  c #742D1B",
"y  c #7C2E16",
"u  c #6D3214",
"i  c #64321C",
"p  c #6C331C",
"a  c #743412",
"s  c #7C3413",
"d  c #7C3913",
"f  c #74341B",
"g  c #7C331B",
"h  c #773B18",
"j  c #5B3626",
"k  c #6D2F20",
"l  c #6B3A28",
"z  c #763622",
"x  c #794326",
"c  c #882B08",
"v  c #82340C",
"b  c #8A340C",
"n  c #853A0B",
"m  c #8B3A0E",
"M  c #873804",
"N  c #953B03",
"B  c #943D0D",
"V  c #9F3E04",
"C  c #872F13",
"Z  c #843314",
"A  c #8C3414",
"S  c #843B13",
"D  c #8C3B13",
"F  c #843519",
"G  c #8D351A",
"H  c #833A1B",
"J  c #893B1B",
"K  c #923B12",
"L  c #9B3C12",
"P  c #943B1C",
"I  c #9B3C1A",
"U  c #963417",
"Y  c #A83D0A",
"T  c #B23C0B",
"R  c #A33C12",
"E  c #A13D19",
"W  c #873723",
"Q  c #933B22",
"!  c #A23F22",
"~  c #89400D",
"^  c #9C420D",
"/  c #944207",
"(  c #8D4314",
")  c #8B431B",
"_  c #864418",
"`  c #954413",
"'  c #9A4114",
"]  c #93441A",
"[  c #9C441C",
"{  c #964C19",
"}  c #A4440E",
"|  c #AD460B",
" . c #A94708",
".. c #B24A0C",
"X. c #B44606",
"o. c #AB4514",
"O. c #AB4D16",
"+. c #AB4C19",
"@. c #A5471B",
"#. c #B64A15",
"$. c #BC4A13",
"%. c #B14B1B",
"&. c #BA4C1B",
"*. c #B44513",
"=. c #BC501F",
"-. c #AE541F",
";. c #8A4128",
":. c #8A4722",
">. c #964124",
",. c #9A4424",
"<. c #984B27",
"1. c #994D36",
"2. c #9B5237",
"3. c #9D532C",
"4. c #A74F29",
"5. c #A54923",
"6. c #B74924",
"7. c #A5532D",
"8. c #AF5521",
"9. c #B45022",
"0. c #B95526",
"q. c #AC4A31",
"w. c #B95838",
"e. c #B0603F",
"r. c #CE4F06",
"t. c #C34B15",
"y. c #C94A1A",
"u. c #C3531D",
"i. c #C85318",
"p. c #CB550F",
"a. c #CA5323",
"s. c #D05F35",
"d. c #CF6124",
"f. c #CC673D",
"g. c #884C48",
"h. c #975B4C",
"j. c #976A56",
"k. c #896148",
"l. c #AC6C47",
"z. c #BD6749",
"x. c #A4685A",
"c. c #B46858",
"v. c #AC7256",
"b. c #AD7772",
"n. c #C05E43",
"m. c #CC6A4A",
"M. c #D26B49",
"N. c #C9734B",
"B. c #DC7947",
"V. c #C36A55",
"C. c #CA7757",
"Z. c #D37356",
"A. c #E17944",
"S. c #C57464",
"D. c #C67C79",
"F. c #BA837C",
"G. c #D88255",
"H. c #CF8256",
"J. c #E58458",
"K. c #D6876D",
"L. c #5E7DBB",
"P. c #5972B4",
"I. c #5C7AAE",
"U. c #6579BB",
"Y. c #7275BE",
"T. c #7A7ABD",
"R. c #5C7CC5",
"E. c #677BC4",
"W. c #727CC3",
"Q. c #8B7EAE",
"!. c #AF7991",
"~. c #817ED5",
"^. c #5A81C9",
"/. c #5B85D6",
"(. c #6983C9",
"). c #7684CB",
"_. c #6985D6",
"`. c #7895D4",
"'. c #7886D6",
"]. c #588BEB",
"[. c #5B93ED",
"{. c #548FFE",
"}. c #5C8FFC",
"|. c #5A8EF4",
" X c #4D96FA",
".X c #5494F4",
"XX c #5D93F5",
"oX c #69D34F"
"OX c #69D34F",
"+X c #559AFD",
"@X c #5A99FE",
"#X c #5799F3",
"$X c #678EE8",
"%X c #6393EB",
"&X c #7696E7",
"*X c #628DFC",
"=X c #678DF7",
"-X c #6394F5",
";X c #6394FC",
":X c #6A93FC",
">X c #6499FE",
",X c #689BF6",
"<X c #7898F5",
"1X c #7BA0EE",
"2X c #B49196",
"3X c #B4868C",
"4X c #8782BA",
"5X c #B695B7",
"6X c #B38EA6",
"7X c #CE938F",
"8X c #C28997",
"9X c #CF9095",
"0X c #69D34F",
"qX c #C695A8",
"wX c #8482C2",
"eX c #8198DD",
"rX c #9094CD",
"tX c #A99AC3",
"yX c #B49BD1",
"uX c #AC94D0",
"iX c #8BA7D7",
"pX c #B2A1CD",
"aX c #8499E7",
"sX c #919EE9",
"dX c #A09FE5",
"fX c #C5A7CD",
/* pixels */
"OXXX-XoX;X-X X;X#X}.;XOX%X;X+X%X,X].>X-X[.@XOX%X:XOX%X>XoXOX.X;X",
"XX;X;X+X}.=XaX6XrX;X:X5X7X8XuXOX|.fX9X8XyXoX@XpX8X&X].oXXX:XXXOX",
"OXOX}.#X;X;X4Xs.dX}.<XD.r.0.yX>X;X6Xt.t.qX>X].5Xi.~.-X@X[.:XOXOX",
"OXOX;XXX|.+X_.w.yX`.iXb.X.0.5X`.sX!.X.X.qX1X`.0X@.).@X-X[.;XoXOX",
";X+X@X;X=XoX/.1.C.j.S.w.> :.Z.c.N.f.6 8 M.c.b.z.H /.oX=XOXOX+X;X",
"=X.X.XOX:X>XE.Z G < D Z r G c , 7 r 2 S c F 8 1 c (.oX:X;X#X[.;X",
"*XXXoXOX=XXX).{ 8 9.[ ) O.%.b 7.O.J 5.@.F @...g +.`.OX*XOX@X-XoX",
"OX@XXXOX[.OX_.S ' : . @ & ;.] < P I < % + # J I s /.OX;X.XOX-X+X",
"OX%X@X}.OX+X(.J J - .   # J A < M J < O . o h Z 4 _.+X@X-X#X-X}.",
"OX[.OXOX%X].W.<.{ L # + & +.D 9.6.r O.%   X @.8 a.W.=X*X;X+X].>X",
"OX+X;XoX-X>X).F W -     % Q C 5 8 ;.u   . . a Q 4 /.[.OX:XXX@XoX",
"}.oX%X;X-X X^.U K ,     % ' K 9 R D 4     @ W M 8 ^.XX@X}.oX.X>X",
"XX;X|.oX.X+X_.<.) D @ $ * :.d *.@.g 3.% + . ] A q.'.,X-XOX+X[.|.",
"<XtX<XoX>XpX6Xv.g.4 l x.j.l.h.r d v.v.k.h.q a x.c.6XrX[.OXsXtX<X",
"wXC.rX<X&XV.a.f.z.3 3.A.a.p.N.t W A.y.a.H.9 P H.p.i.0X#X;X5X0.4X",
").S.aX$XaXV.a.d.m...0.m.9.i.N.%.9.B.u.i.Z.#.#.C.r.i.0X&X=XyXa.Q.",
"^.2.qX3X0Xg.5 <.K.N.J.e.f J J.Z.G.l.9 Z K.C.H.N.Z 2 b.2X2X3XC L.",
"E.6.Y 6 +. .k T } c  .^ f { ^ 6 @.5.b L } b (  .7 [ T U Q T E P.",
"W.Q ( | D ) T ;.F #.,.g o.o.s 5.5.r } %.k @. .x o.,.z ..| l @.Q.",
"^.a g t f Z 4 n f s f 6 M c 0 : - p 2 m 1 r F w n a a 9 a w g L.",
"(.{ | F +.X.x ^ | c ` O.7 x =   . * j <.X.K <.| D ;.X.>.:.| ,.U.",
").Z m R Z 9 Y _ A } P F B = o . O o - ] t { N w Y I p ^ ^ i I Q.",
"R.F 7 F W 7 9 F q a d 6 z . + X o $ % g w d M i n n > F S 0 D I.",
"'.@.9.d O.&.h 6.&.S +.#.k . .   O X . q.6.( { t.;.5.$.[ ] #.E R.",
"Y.p A / s s ^ d s L m a v . X     . # ) , ( ` , L ~ > K P q B T.",
"E.f G n g g m s u v S u a # o       . g y F G w S D q d G r _ Y.",
").4.&.s 9.=.t u.#.F 7.&.6   . X     $ 7.#.L ,.$.] { t.5.>.#.^ L.",
"E.< H n v f B 7 f N b f d . O o     @ S 0 D N ; L m e M N i ~ Y.",
"E.7 S n v f ^ d f N b z s @ O       . S 0 S N ; L D 0 N N i ( Y.",
").4.6.a 9.&.w u.#.W 7.#.7 o . X   . $ 7.$.I >.$.) { t.! Q &.` L.",
"E.r A n s g m y p M d 4 2 O   o     @ s y F G k S S q d G q _ Y.",
").f D / g Z ^ S d R D h S @ X     . # ) , ) { , } K q L ] 2 ^ T."
};
