/* XPM */
static char *_e8857dfc4744294c81aa8e2139cac5aP6Vp86H6YrJYUl0a[] = {
/* columns rows colors chars-per-pixel */
"32 32 15 1 ",
"  c #69D34F",
". c #141412",
"X c #362414",
"o c #620000",
"O c #744C2B",
"+ c #000059",
"@ c #1D4E6D",
"# c #9B1F28",
"$ c #DE302E",
"% c #AA7040",
"& c #F07868",
"* c #F0A070",
"= c #D7CF6F",
"- c #2972A3",
"; c #F8F7F8",
/* pixels */
"                                ",
"             oooooo             ",
"            o#$==##o            ",
"           o$$$;;$$#o           ",
"          o#$oooooo$#o          ",
"          o#o#$$$$#o#o          ",
"          oooooooooooo          ",
"          OX&;;&&;;&XO          ",
"         O*X&;-**-;&X*O         ",
"         O&X*;.&&.;*X&O         ",
"         O&X*&****&*X&O         ",
"          O&*.&**&.*&O          ",
"          O&...&&...&O          ",
"           O&*....*&O           ",
"            OO&&&&OO            ",
"          OO++oooo++OO          ",
"         O;;O@o$#o@O;;O         ",
"        O;;;=O+##+O;;;=O        ",
"        O;;;=O++++O;;;=O        ",
"        O;;==O=--=O;;==O        ",
"         O==O==--==O==O         ",
"          OO@---@@@@OO          ",
"          +@@-@++@--@+          ",
"           +@-@+@--@+           ",
"           @@@@+@--@@           ",
"           ++++++++++           ",
"           X%OOXOOOOX           ",
"          X%OOOXX%%OOX          ",
"          XXXXXXXXXXXX          ",
"                                ",
"                                ",
"                                "
};
