/* XPM */
static char *_8324c4f542e4570c1c2e9fcf3b1a8b2Mlm9ml3OrGLrPBa2[] = {
/* columns rows colors chars-per-pixel */
"32 32 7 1 ",
"  c #69D34F",
". c black",
"X c #203838",
"o c #786818",
"O c #C89858",
"+ c #E0C050",
"@ c #F8D870",
/* pixels */
"                                ",
"                                ",
"               XX               ",
"              oOOo              ",
"             .o++o.             ",
"             .o++o.             ",
"             oO++Oo             ",
"            XO@@@@OX            ",
"            XO@@@@OX            ",
"            oO@@@@Oo            ",
"    .......o+@@@@@@+o.......    ",
"   .XoOooooO@++@@++@OooooOoX.   ",
"   .oO@@@@@@@Oo++oO@@@@@@@Oo.   ",
"    oO+@@@@@@Oo++oO@@@@@@+Oo    ",
"     XO+@@@@@Oo++oO@@@@@+OX     ",
"      oO+@@@@Oo++oO@@@@+Oo      ",
"       XO+@@@OO++OO@@@+OX       ",
"        oo+@@@@@@@@@@+oo        ",
"        oO@@@@@@@@@@@@Oo        ",
"       XO@@@@@@@@@@@@@@OX       ",
"       XO@@@@@@@@@@@@@@OX       ",
"      oo+@@@@@@++@@@@@@+oo      ",
"     .o+@@@@@@@OO@@@@@@@+o.     ",
"     .O@@@@@OOOooOOO@@@@@O.     ",
"     oO@@@@OoXX  XXoO@@@@Oo     ",
"    oO+@+OOo        oOO+@+Oo    ",
"   .oO++OX..        ..XO++Oo.   ",
"   .Xoooo              ooooX.   ",
"    ....                ....    ",
"                                ",
"                                ",
"                                "
};
